HIERARCHY
ROOT Hips
{
	OFFSET 0.000000 71.427986 0.000000
	CHANNELS 6 Xposition Yposition Zposition Xrotation Yrotation Zrotation
	JOINT Pelvis
	{
		OFFSET 0.000000 0.000000 0.000000
		CHANNELS 3 Xrotation Yrotation Zrotation
		JOINT LeftUpLeg
		{
			OFFSET 6.797100 -2.508499 -1.318700
			CHANNELS 3 Xrotation Yrotation Zrotation
			JOINT LeftLeg
			{
				OFFSET 0.069008 -29.241863 0.690200
				CHANNELS 3 Xrotation Yrotation Zrotation
				JOINT LeftFoot
				{
					OFFSET -0.069008 -29.568123 -0.266800
					CHANNELS 3 Xrotation Yrotation Zrotation
					JOINT LeftToeBase
					{
						OFFSET 3.145500 -8.631000 16.059900
						CHANNELS 3 Xrotation Yrotation Zrotation
						End Site
						{
							OFFSET 0.000000 18.501587 0.000000
						}
					}
				}
			}
			JOINT Left_ShortSleeve
			{
				OFFSET 0.265923 -10.480953 1.153800
				CHANNELS 3 Xrotation Yrotation Zrotation
				End Site
				{
					OFFSET 1.725763 19.823879 0.000000
				}
			}
		}
		JOINT RightUpLeg
		{
			OFFSET -6.797100 -2.508499 -1.318700
			CHANNELS 3 Xrotation Yrotation Zrotation
			JOINT RightLeg
			{
				OFFSET -0.082453 -29.241932 0.688000
				CHANNELS 3 Xrotation Yrotation Zrotation
				JOINT RightFoot
				{
					OFFSET 0.082453 -29.568058 -0.264600
					CHANNELS 3 Xrotation Yrotation Zrotation
					JOINT RightToeBase
					{
						OFFSET -3.115300 -8.682800 16.113400
						CHANNELS 3 Xrotation Yrotation Zrotation
						End Site
						{
							OFFSET 0.000000 18.567114 0.000000
						}
					}
				}
			}
			JOINT Right_ShortSleeve
			{
				OFFSET -0.265923 -10.480953 1.153800
				CHANNELS 3 Xrotation Yrotation Zrotation
				End Site
				{
					OFFSET -1.725766 19.823910 0.000000
				}
			}
		}
	}
	JOINT Spine
	{
		OFFSET 0.000000 13.368103 0.470500
		CHANNELS 3 Xrotation Yrotation Zrotation
		JOINT Spine1
		{
			OFFSET 0.147000 13.837402 0.538800
			CHANNELS 3 Xrotation Yrotation Zrotation
			JOINT Spine2
			{
				OFFSET 0.168000 16.242897 -1.435500
				CHANNELS 3 Xrotation Yrotation Zrotation
				JOINT Neck
				{
					OFFSET 0.217200 18.631500 -1.679100
					CHANNELS 3 Xrotation Yrotation Zrotation
					JOINT Head
					{
						OFFSET 0.000000 6.599396 1.385900
						CHANNELS 3 Xrotation Yrotation Zrotation
						JOINT Hat
						{
							OFFSET -0.532200 27.220596 -10.096100
							CHANNELS 3 Xrotation Yrotation Zrotation
							End Site
							{
								OFFSET 0.000000 22.029861 0.000000
							}
						}
						JOINT HairD
						{
							OFFSET -10.777400 17.437393 -1.325900
							CHANNELS 3 Xrotation Yrotation Zrotation
							JOINT HairD1
							{
								OFFSET -3.290299 -11.051193 1.062200
								CHANNELS 3 Xrotation Yrotation Zrotation
								End Site
								{
									OFFSET 0.000000 11.579437 0.000000
								}
							}
						}
						JOINT HairB
						{
							OFFSET -10.777400 17.437393 1.467900
							CHANNELS 3 Xrotation Yrotation Zrotation
							JOINT HairB1
							{
								OFFSET -1.561200 -12.956299 3.590200
								CHANNELS 3 Xrotation Yrotation Zrotation
								End Site
								{
									OFFSET 0.000000 13.534866 0.000000
								}
							}
						}
						JOINT HairA
						{
							OFFSET 9.713100 17.437393 1.467900
							CHANNELS 3 Xrotation Yrotation Zrotation
							JOINT HairA1
							{
								OFFSET 1.561200 -12.956299 3.590200
								CHANNELS 3 Xrotation Yrotation Zrotation
								End Site
								{
									OFFSET 0.000000 13.534866 0.000000
								}
							}
						}
						JOINT HairC
						{
							OFFSET 9.713100 17.437393 -1.325900
							CHANNELS 3 Xrotation Yrotation Zrotation
							JOINT HairC1
							{
								OFFSET 3.290300 -11.051193 1.062200
								CHANNELS 3 Xrotation Yrotation Zrotation
								End Site
								{
									OFFSET 0.000000 11.579437 0.000000
								}
							}
						}
					}
				}
				JOINT LeftShoulder
				{
					OFFSET 5.101800 15.108002 -2.763700
					CHANNELS 3 Xrotation Yrotation Zrotation
					JOINT LeftArm
					{
						OFFSET 9.825497 2.506317 -1.597400
						CHANNELS 3 Xrotation Yrotation Zrotation
						JOINT LeftForeArm
						{
							OFFSET 21.966244 0.000000 0.000000
							CHANNELS 3 Xrotation Yrotation Zrotation
							JOINT LeftHand
							{
								OFFSET 33.879036 0.000000 0.000000
								CHANNELS 3 Xrotation Yrotation Zrotation
								JOINT LeftHandThumb1
								{
									OFFSET 6.715286 -2.359680 3.363841
									CHANNELS 3 Xrotation Yrotation Zrotation
									JOINT LeftHandThumb2
									{
										OFFSET 2.507072 -1.447464 1.447461
										CHANNELS 3 Xrotation Yrotation Zrotation
										JOINT LeftHandThumb3
										{
											OFFSET 2.898338 -1.673355 1.673357
											CHANNELS 3 Xrotation Yrotation Zrotation
											End Site
											{
												OFFSET -0.295959 3.727692 -0.131651
											}
										}
									}
								}
								JOINT LeftHandIndex1
								{
									OFFSET 14.190811 -0.254547 3.840278
									CHANNELS 3 Xrotation Yrotation Zrotation
									JOINT LeftHandIndex2
									{
										OFFSET 3.551727 0.000000 -0.000000
										CHANNELS 3 Xrotation Yrotation Zrotation
										JOINT LeftHandIndex3
										{
											OFFSET 2.894196 0.000000 0.000000
											CHANNELS 3 Xrotation Yrotation Zrotation
											End Site
											{
												OFFSET -1.000603 2.690872 0.366626
											}
										}
									}
								}
								JOINT LeftHandMiddle1
								{
									OFFSET 13.776489 0.000000 0.000000
									CHANNELS 3 Xrotation Yrotation Zrotation
									JOINT LeftHandMiddle2
									{
										OFFSET 3.438232 0.000000 0.000000
										CHANNELS 3 Xrotation Yrotation Zrotation
										JOINT LeftHandMiddle3
										{
											OFFSET 3.691551 0.000000 0.000000
											CHANNELS 3 Xrotation Yrotation Zrotation
											End Site
											{
												OFFSET -1.082298 3.499527 0.457670
											}
										}
									}
								}
								JOINT LeftHandRing1
								{
									OFFSET 13.966164 -0.268127 -3.067488
									CHANNELS 3 Xrotation Yrotation Zrotation
									JOINT LeftHandRing2
									{
										OFFSET 3.162567 0.000000 0.000000
										CHANNELS 3 Xrotation Yrotation Zrotation
										JOINT LeftHandRing3
										{
											OFFSET 3.324348 0.000000 0.000000
											CHANNELS 3 Xrotation Yrotation Zrotation
											End Site
											{
												OFFSET -0.861900 3.184998 0.405154
											}
										}
									}
								}
								JOINT LeftHandPinky1
								{
									OFFSET 13.131393 -0.168503 -5.746925
									CHANNELS 3 Xrotation Yrotation Zrotation
									JOINT LeftHandPinky2
									{
										OFFSET 2.849182 0.000000 0.000000
										CHANNELS 3 Xrotation Yrotation Zrotation
										JOINT LeftHandPinky3
										{
											OFFSET 2.805038 0.000000 0.000000
											CHANNELS 3 Xrotation Yrotation Zrotation
											End Site
											{
												OFFSET -0.882500 2.642609 0.325652
											}
										}
									}
								}
							}
							JOINT Left_Sleeve
							{
								OFFSET 6.592125 -0.646545 0.805568
								CHANNELS 3 Xrotation Yrotation Zrotation
								End Site
								{
									OFFSET -0.000179 20.275787 -0.000000
								}
							}
						}
					}
				}
				JOINT RightShoulder
				{
					OFFSET -5.731700 15.108002 -2.763700
					CHANNELS 3 Xrotation Yrotation Zrotation
					JOINT RightArm
					{
						OFFSET -9.825497 2.506317 -1.597400
						CHANNELS 3 Xrotation Yrotation Zrotation
						JOINT RightForeArm
						{
							OFFSET -21.966242 0.000000 0.000000
							CHANNELS 3 Xrotation Yrotation Zrotation
							JOINT RightHand
							{
								OFFSET -33.879032 0.000000 0.000000
								CHANNELS 3 Xrotation Yrotation Zrotation
								JOINT RightHandThumb1
								{
									OFFSET -6.715286 -2.359680 3.363841
									CHANNELS 3 Xrotation Yrotation Zrotation
									JOINT RightHandThumb2
									{
										OFFSET -2.507072 -1.447464 1.447461
										CHANNELS 3 Xrotation Yrotation Zrotation
										JOINT RightHandThumb3
										{
											OFFSET -2.898338 -1.673355 1.673357
											CHANNELS 3 Xrotation Yrotation Zrotation
											End Site
											{
												OFFSET 0.295959 3.727692 -0.131651
											}
										}
									}
								}
								JOINT RightHandIndex1
								{
									OFFSET -14.190811 -0.254547 3.840278
									CHANNELS 3 Xrotation Yrotation Zrotation
									JOINT RightHandIndex2
									{
										OFFSET -3.551727 0.000000 -0.000000
										CHANNELS 3 Xrotation Yrotation Zrotation
										JOINT RightHandIndex3
										{
											OFFSET -2.894196 0.000000 0.000000
											CHANNELS 3 Xrotation Yrotation Zrotation
											End Site
											{
												OFFSET 1.000603 2.690872 0.366626
											}
										}
									}
								}
								JOINT RightHandMiddle1
								{
									OFFSET -13.776489 0.000000 0.000000
									CHANNELS 3 Xrotation Yrotation Zrotation
									JOINT RightHandMiddle2
									{
										OFFSET -3.438232 0.000000 0.000000
										CHANNELS 3 Xrotation Yrotation Zrotation
										JOINT RightHandMiddle3
										{
											OFFSET -3.691551 0.000000 0.000000
											CHANNELS 3 Xrotation Yrotation Zrotation
											End Site
											{
												OFFSET 1.082298 3.499527 0.457670
											}
										}
									}
								}
								JOINT RightHandRing1
								{
									OFFSET -13.966164 -0.268127 -3.067488
									CHANNELS 3 Xrotation Yrotation Zrotation
									JOINT RightHandRing2
									{
										OFFSET -3.162567 0.000000 0.000000
										CHANNELS 3 Xrotation Yrotation Zrotation
										JOINT RightHandRing3
										{
											OFFSET -3.324348 0.000000 0.000000
											CHANNELS 3 Xrotation Yrotation Zrotation
											End Site
											{
												OFFSET 0.861900 3.184998 0.405154
											}
										}
									}
								}
								JOINT RightHandPinky1
								{
									OFFSET -13.131393 -0.168503 -5.746925
									CHANNELS 3 Xrotation Yrotation Zrotation
									JOINT RightHandPinky2
									{
										OFFSET -2.849182 0.000000 0.000000
										CHANNELS 3 Xrotation Yrotation Zrotation
										JOINT RightHandPinky3
										{
											OFFSET -2.805038 0.000000 0.000000
											CHANNELS 3 Xrotation Yrotation Zrotation
											End Site
											{
												OFFSET 0.882500 2.642609 0.325652
											}
										}
									}
								}
							}
							JOINT Right_Sleeve
							{
								OFFSET -6.592125 -0.646545 0.805568
								CHANNELS 3 Xrotation Yrotation Zrotation
								End Site
								{
									OFFSET 0.000179 20.275787 -0.000000
								}
							}
						}
					}
				}
				JOINT Bind_Right_JacketString
				{
					OFFSET -3.534800 11.969597 7.200700
					CHANNELS 3 Xrotation Yrotation Zrotation
					JOINT Bind_Right_JacketString1
					{
						OFFSET -0.319900 -6.102600 2.794100
						CHANNELS 3 Xrotation Yrotation Zrotation
						End Site
						{
							OFFSET 0.000000 6.719452 0.000000
						}
					}
				}
				JOINT Bind_Left_JacketString
				{
					OFFSET 2.904800 11.969597 7.200700
					CHANNELS 3 Xrotation Yrotation Zrotation
					JOINT Bind_Left_JacketString1
					{
						OFFSET 0.364800 -5.904503 3.186800
						CHANNELS 3 Xrotation Yrotation Zrotation
						End Site
						{
							OFFSET 0.000000 6.719513 0.000000
						}
					}
				}
				JOINT HairE
				{
					OFFSET 5.915200 17.612701 -11.592200
					CHANNELS 3 Xrotation Yrotation Zrotation
					JOINT HairE1
					{
						OFFSET 0.289200 -7.171898 -1.284500
						CHANNELS 3 Xrotation Yrotation Zrotation
						End Site
						{
							OFFSET 0.000000 7.291756 0.000000
						}
					}
				}
				JOINT HairF
				{
					OFFSET -0.864800 17.612701 -11.592200
					CHANNELS 3 Xrotation Yrotation Zrotation
					JOINT HairF1
					{
						OFFSET 0.000000 -14.087097 -2.127501
						CHANNELS 3 Xrotation Yrotation Zrotation
						End Site
						{
							OFFSET 0.000000 14.246841 0.000000
						}
					}
				}
				JOINT HairG
				{
					OFFSET -8.087700 17.612701 -11.592200
					CHANNELS 3 Xrotation Yrotation Zrotation
					JOINT HairG1
					{
						OFFSET -0.293600 -6.081398 -0.910100
						CHANNELS 3 Xrotation Yrotation Zrotation
						End Site
						{
							OFFSET 0.000000 6.156120 0.000000
						}
					}
				}
			}
		}
	}
	JOINT Pouch
	{
		OFFSET 0.000000 4.394501 10.847300
		CHANNELS 3 Xrotation Yrotation Zrotation
		End Site
		{
			OFFSET 0.000000 21.880577 0.000000
		}
	}
	JOINT Bag
	{
		OFFSET -13.229000 4.813004 -0.593300
		CHANNELS 3 Xrotation Yrotation Zrotation
		End Site
		{
			OFFSET 0.000000 21.880577 0.000000
		}
	}
	JOINT OccupyGuyFacialAnim_Joint
	{
		OFFSET 1.000000 -70.206398 -1.655000
		CHANNELS 3 Xrotation Yrotation Zrotation
		End Site
		{
			OFFSET 0.000000 21.880577 0.000000
		}
	}
}
MOTION
Frames: 4
Frame Time: 0.016667
-2.301509 69.369507 -4.277597 -9.384337 -0.928427 3.397641 -0.000000 -0.000000 -0.000000 -5.547784 8.576380 -4.283399 26.625556 -0.217630 -0.283169 -12.286779 3.718632 3.246703 -0.000000 0.000000 0.000000 -0.000000 -0.000001 0.000000 -11.154308 -14.141143 -15.760173 31.173721 0.614299 0.332007 -10.553529 -14.523818 4.537810 -0.000000 0.000001 0.000000 -0.000001 -0.000003 -0.000001 7.162169 1.538434 -4.383827 14.244015 3.269501 -3.077380 14.269165 3.169306 -3.056462 34.427070 0.786428 -4.647340 -1.158472 2.164345 -5.573710 0.000001 -0.000001 0.000001 0.000001 -0.000001 0.000001 0.000001 -0.000001 0.000001 0.000001 -0.000001 0.000003 0.000001 -0.000000 0.000001 0.000001 -0.000001 0.000003 0.000001 -0.000000 0.000001 0.000001 -0.000001 0.000001 0.000001 -0.000001 0.000001 -1.697384 -21.196982 -25.775447 -1.040221 -44.501777 -31.977935 4.422153 -24.531581 1.305865 -9.189771 -9.383448 -4.673700 -20.843946 2.778244 -4.205197 -15.861871 33.847825 10.250601 0.000002 0.000001 0.000000 -3.032241 19.342237 -21.628890 6.299664 9.746894 -60.829030 0.000001 -0.000003 -0.000001 -13.487435 18.095005 -22.029633 6.757694 12.670211 -69.483685 -0.000002 -0.000001 0.000002 -15.276628 16.701585 -37.493357 3.110961 12.310344 -81.609525 -0.000001 0.000000 -0.000001 -30.922654 24.752752 -41.174989 6.897636 7.241774 -89.331388 -0.000000 -0.000000 -0.000001 0.000000 0.000002 -0.000003 -1.956287 23.252493 25.557185 -0.642655 20.673895 37.850135 388.848024 40.014376 -373.261150 -9.479952 7.418363 17.742887 -21.511942 -2.863833 5.102379 -16.456410 -31.619592 -10.828970 0.000005 -0.000001 0.000001 -1.117339 -20.400098 22.512870 6.671877 -9.934580 63.001023 -0.000000 -0.000000 -0.000002 -13.816720 -17.423256 21.320934 6.561201 -12.925891 68.651099 0.000001 -0.000003 -0.000001 -14.137733 -15.831730 36.119195 3.239831 -12.615806 81.908277 -0.000000 -0.000001 -0.000002 -31.246900 -25.471749 41.789724 6.380857 -7.478742 85.668986 -0.000001 0.000003 0.000001 -0.000000 -0.000004 0.000001 0.000000 -0.000001 0.000001 0.000002 -0.000000 -0.000001 0.000000 -0.000001 0.000000 0.000000 -0.000001 0.000000 0.000000 -0.000001 0.000001 0.000002 -0.000000 -0.000000 0.000000 -0.000001 0.000000 0.000000 -0.000001 0.000000 0.000000 -0.000001 0.000001 0.000002 -0.000000 -0.000000 -0.000000 -0.000000 -0.000000 -0.000000 -0.000000 -0.000000 -0.000000 -0.000000 -0.000000 
-2.007823 69.508698 -4.169189 -9.892888 -1.231899 3.597759 -0.000001 0.000000 -0.000001 -4.069819 9.003625 -4.857208 25.243780 -0.185859 -0.270481 -11.813640 3.547708 3.514544 -0.000000 0.000000 -0.000000 0.000000 -0.000000 -0.000000 -10.223443 -14.130121 -16.185643 30.207420 0.606439 0.328811 -10.005284 -14.238743 4.850253 -0.000000 0.000004 0.000000 -0.000001 0.000001 0.000001 6.795095 1.599264 -4.520865 13.499548 3.300434 -3.157293 13.525420 3.199132 -3.135812 33.353412 1.110185 -4.334501 -1.596107 2.537174 -5.856435 -0.000002 -0.000000 -0.000002 -0.000002 -0.000000 -0.000002 -0.000002 -0.000000 -0.000002 -0.000002 -0.000000 -0.000002 0.000003 -0.000000 -0.000002 -0.000002 -0.000000 -0.000002 0.000003 -0.000000 -0.000002 -0.000002 -0.000000 -0.000002 -0.000002 -0.000000 -0.000002 -1.205559 -20.666493 -24.364057 1.602667 -41.933608 -31.598269 4.490934 -26.563558 0.875716 -9.122652 -9.161217 -3.757658 -20.813308 1.465072 -4.329373 -17.962337 34.591452 10.894332 0.000003 -0.000000 0.000000 -2.865790 20.397631 -21.773245 6.720244 9.983956 -64.054901 0.000000 0.000001 -0.000000 -14.124279 18.570904 -22.021462 7.166285 13.162440 -72.156072 0.000002 -0.000003 0.000002 -15.699002 16.729302 -37.472200 3.380871 13.021830 -85.361239 0.000000 0.000007 -0.000004 -32.764943 25.881141 -41.122414 7.141905 7.587550 -92.296886 0.000000 -0.000002 0.000001 -0.000001 0.000002 -0.000003 -1.348469 22.309544 23.910453 2.405166 20.579681 39.044838 390.735042 42.386098 -375.654476 -9.510658 7.694587 16.288767 -21.155630 -1.499633 4.801383 -18.479118 -32.518531 -11.171422 -0.000002 -0.000001 -0.000000 -1.414029 -21.180234 23.136482 7.201673 -10.089854 66.392225 -0.000001 0.000001 -0.000001 -13.696607 -18.828231 22.659689 7.302393 -13.300215 72.456122 -0.000000 -0.000001 -0.000001 -14.448087 -16.935539 37.866005 3.852934 -13.239557 86.752111 -0.000000 0.000001 -0.000003 -32.393507 -27.169743 42.613680 7.303001 -7.722417 91.940466 0.000003 0.000002 0.000001 -0.000000 -0.000001 -0.000002 -0.000003 -0.000000 0.000001 -0.000002 0.000000 -0.000000 -0.000003 -0.000000 0.000001 -0.000003 -0.000000 0.000001 -0.000003 -0.000000 0.000001 -0.000002 0.000000 -0.000000 -0.000003 -0.000000 0.000001 -0.000003 -0.000000 0.000001 -0.000003 -0.000000 0.000001 -0.000002 0.000000 -0.000000 -0.000001 0.000000 -0.000001 -0.000001 0.000000 -0.000001 -0.000001 0.000000 -0.000001 
-1.718085 69.579941 -4.102755 -10.186725 -1.440885 3.782201 0.000001 -0.000000 0.000000 -3.115851 9.377497 -5.380585 24.340764 -0.162547 -0.261067 -11.510746 3.361709 3.788300 -0.000000 -0.000001 -0.000000 -0.000001 -0.000000 0.000000 -9.728653 -14.088885 -16.630486 29.610953 0.606806 0.326493 -9.598575 -14.030556 5.172806 -0.000000 -0.000002 -0.000000 -0.000001 -0.000001 -0.000001 6.441188 1.613406 -4.648050 12.785435 3.259335 -3.237265 12.811441 3.157066 -3.215350 32.190986 1.385668 -4.182463 -2.117605 2.779016 -5.803773 -0.000001 0.000000 0.000000 -0.000001 0.000000 0.000000 -0.000001 0.000000 -0.000000 -0.000001 0.000000 0.000000 -0.000001 0.000001 -0.000000 -0.000001 0.000000 0.000000 -0.000001 0.000001 -0.000000 -0.000001 0.000000 0.000000 -0.000001 0.000000 0.000000 -0.606957 -19.983602 -22.751679 3.591675 -39.451132 -31.646927 5.236545 -28.036368 0.947471 -9.048439 -8.981118 -2.662391 -20.797711 0.593353 -4.405188 -19.377544 35.076798 11.340711 0.000001 0.000001 -0.000001 -2.843861 21.049268 -21.555230 6.983296 10.133560 -66.089949 0.000002 -0.000001 -0.000000 -14.712806 18.654546 -21.681848 7.427310 13.475968 -73.762198 -0.000002 0.000002 -0.000003 -16.114180 16.583348 -37.151390 3.571169 13.484257 -87.649489 -0.000001 0.000003 -0.000000 -34.046792 26.463781 -40.933679 7.318339 7.814284 -94.101360 -0.000004 0.000001 -0.000001 -0.000002 -0.000000 -0.000001 -0.713642 21.402183 22.136612 4.746084 20.510857 40.324860 391.595673 44.303663 -377.134769 -9.517309 8.185767 14.466660 -20.919476 -0.599285 4.588753 -19.743212 -33.270582 -11.347285 -0.000008 0.000001 -0.000000 -1.732046 -21.630741 23.353231 7.525082 -10.184724 68.548530 -0.000001 0.000001 0.000002 -13.647374 -19.748117 23.428135 7.815855 -13.530630 74.982131 -0.000000 0.000001 -0.000001 -14.832519 -17.503007 38.828061 4.283383 -13.641184 89.897891 -0.000000 -0.000002 -0.000000 -33.250580 -28.094764 42.857893 7.902228 -7.871616 96.036995 0.000001 -0.000000 -0.000005 0.000001 -0.000001 -0.000000 0.000003 -0.000001 0.000000 0.000003 -0.000001 0.000000 0.000003 -0.000001 0.000000 0.000003 -0.000001 0.000000 0.000003 -0.000001 0.000000 0.000003 -0.000001 0.000000 0.000003 -0.000001 0.000000 0.000003 -0.000001 0.000000 0.000003 -0.000001 0.000000 0.000003 -0.000001 0.000000 0.000001 -0.000000 0.000000 0.000001 -0.000000 0.000000 0.000001 -0.000000 0.000000 
-1.445116 69.598610 -4.050836 -10.278996 -1.601694 3.951280 0.000000 -0.000000 -0.000000 -2.612126 9.732396 -5.838189 23.865323 -0.143224 -0.255816 -11.398244 3.174925 4.053584 -0.000000 -0.000001 -0.000000 -0.000001 -0.000001 0.000001 -9.620293 -13.983958 -17.080766 29.390652 0.607605 0.325502 -9.372662 -13.860335 5.432370 0.000000 0.000001 0.000000 -0.000000 0.000001 -0.000000 6.094957 1.618119 -4.772439 12.086296 3.177757 -3.317953 12.112674 3.083689 -3.298395 30.904830 1.645484 -3.990190 -2.591282 2.961594 -5.738691 -0.000001 -0.000001 -0.000000 -0.000001 -0.000001 -0.000000 -0.000001 -0.000001 -0.000001 -0.000001 -0.000001 -0.000001 0.000001 -0.000000 -0.000000 -0.000001 -0.000001 -0.000001 0.000001 -0.000000 -0.000000 -0.000001 -0.000001 -0.000000 -0.000001 -0.000001 -0.000000 0.051151 -19.230215 -20.982117 4.852671 -36.960476 -32.152340 6.739173 -28.723865 1.369265 -8.972977 -8.751111 -1.470426 -20.780026 0.131053 -4.433521 -20.134373 35.301696 11.597065 0.000000 0.000001 -0.000000 -2.943795 21.290202 -21.292070 7.059000 10.202918 -66.897502 0.000002 -0.000001 -0.000000 -15.195124 18.667303 -21.192993 7.557101 13.632481 -74.479347 0.000003 -0.000001 0.000002 -16.474331 16.391640 -36.743771 3.655763 13.711818 -88.528008 -0.000000 0.000001 0.000002 -34.882568 26.667386 -40.681611 7.415468 7.943065 -95.048605 -0.000004 0.000003 -0.000000 0.000003 -0.000002 0.000001 -0.076873 20.530183 20.303509 6.411394 20.396582 41.725168 391.669357 45.382417 -377.619794 -9.496817 8.760643 12.468577 -20.787035 -0.131099 4.453349 -20.394052 -33.885484 -11.409660 -0.000000 -0.000001 0.000001 -1.978511 -21.846049 23.322091 7.606882 -10.233818 69.363494 -0.000000 -0.000001 0.000004 -13.665512 -20.156394 23.639263 8.028567 -13.635630 76.097917 0.000001 -0.000001 -0.000001 -15.196111 -17.695950 39.083811 4.414955 -13.872904 91.092498 0.000001 0.000002 -0.000002 -33.824323 -28.399952 42.754416 8.070502 -7.958743 97.642677 -0.000000 0.000003 0.000003 0.000000 -0.000000 0.000001 -0.000003 0.000000 0.000001 -0.000001 0.000001 -0.000000 -0.000003 0.000000 0.000001 -0.000003 0.000000 0.000001 -0.000003 0.000000 0.000001 -0.000001 0.000001 -0.000000 -0.000003 0.000000 0.000001 -0.000003 0.000000 0.000001 -0.000003 0.000000 0.000001 -0.000001 0.000001 -0.000000 0.000000 -0.000000 -0.000000 0.000000 -0.000000 -0.000000 0.000000 -0.000000 -0.000000 
